<svg xmlns="http://www.w3.org/2000/svg" width="27" height="24" viewBox="0 0 27 24">
    <g fill="#303450" fill-rule="nonzero">
        <path d="M10.844 18A2.847 2.847 0 0 0 8 20.843a2.847 2.847 0 0 0 2.844 2.845 2.847 2.847 0 0 0 2.844-2.845A2.847 2.847 0 0 0 10.844 18zM21.844 18A2.847 2.847 0 0 0 19 20.843a2.847 2.847 0 0 0 2.844 2.845 2.847 2.847 0 0 0 2.843-2.845A2.847 2.847 0 0 0 21.845 18zM24.39 4.226c-.051.035-.952 3.094-2.7 9.177l-10.648.06L7.362.68A.93.93 0 0 0 6.46 0H1.934c-1.603 0-1.714 2.548 0 2.548H5.04l.775 2.172.014.054 2.883 10.795c.108.401.48.681.904.681h13.56a.93.93 0 0 0 .903-.68L26.97 4.745c.45-1.693-2.035-2.317-2.58-.52z"/>
        <path d="M15.59 10.077a.909.909 0 0 0 1.287 0l2.892-2.472a1 1 0 0 0-.65-1.76h-1.642l-.053-3.935c0-1.914-2.585-1.969-2.585 0l.027 3.937h-1.588a1 1 0 0 0-.64 1.768l2.951 2.462z"/>
    </g>
</svg>
