<?xml version="1.0" encoding="UTF-8"?>
<svg width="26px" height="18px" viewBox="0 0 26 18" version="1.1" xmlns="http://www.w3.org/2000/svg" xmlns:xlink="http://www.w3.org/1999/xlink">
    <!-- Generator: Sketch 58 (84663) - https://sketch.com -->
    <title>Group 15</title>
    <desc>Created with Sketch.</desc>
    <defs>
        <rect id="path-1" x="0" y="0" width="26" height="18" rx="3"></rect>
    </defs>
    <g id="Page-1" stroke="none" stroke-width="1" fill="none" fill-rule="evenodd">
        <g id="Group-15">
            <mask id="mask-2" fill="white">
                <use xlink:href="#path-1"></use>
            </mask>
            <use id="Rectangle" fill="#D8D8D8" xlink:href="#path-1"></use>
            <g id="united-kingdom" mask="url(#mask-2)" fill-rule="nonzero">
                <g transform="translate(0.000000, -1.000000)" id="Path">
                    <polygon fill="#00247D" points="0 13.8087573 4.05673489 13.8087573 0 16.6487378"></polygon>
                    <polygon fill="#00247D" points="3.36188109 0.834098441 9.37057992 0.834098441 9.37057992 5.04148635"></polygon>
                    <polygon fill="#00247D" points="16.5787378 5.04078947 16.5787378 0.834098441 22.5867398 0.834098441"></polygon>
                    <polygon fill="#00247D" points="0 6.60059942 0 3.75985867 4.05819201 6.60059942"></polygon>
                    <polygon fill="#00247D" points="22.5903509 19.5752583 16.5808918 19.5752583 16.5808918 15.3678704"></polygon>
                    <polygon fill="#00247D" points="21.8904288 6.60059942 25.9493177 3.75916179 25.9493177 6.60059942 21.8904288 6.60059942"></polygon>
                    <polygon fill="#00247D" points="21.891886 13.8087573 25.9493177 13.8087573 25.9493177 16.6494981"></polygon>
                    <polygon fill="#00247D" points="9.37057992 19.5752583 3.36188109 19.5752583 9.37057992 15.3678704"></polygon>
                    <path d="M18.1212524,6.60059942 L25.1218031,1.6983577 C25.4613109,2.04432749 25.7042057,2.47829435 25.8354094,2.95907895 L20.6347125,6.60066277 L18.1212524,6.60066277 L18.1212524,6.60059942 Z" fill="#DE2910"></path>
                    <path d="M9.37057992,6.60059942 L7.82730507,6.60059942 L0.827451267,1.69905458 C1.20300682,1.31703704 1.6844883,1.04385965 2.22438109,0.916963938 L9.37057992,5.92088694 L9.37057992,6.60059942 L9.37057992,6.60059942 Z" fill="#DE2910"></path>
                    <path d="M16.5787378,13.8087573 L18.1220127,13.8087573 L25.1218665,18.7103021 C24.7463109,19.0923197 24.2648294,19.3654971 23.7256335,19.4923928 L16.5787378,14.4884698 L16.5787378,13.8087573 L16.5787378,13.8087573 Z" fill="#DE2910"></path>
                    <path d="M7.82730507,13.8087573 L0.82751462,18.7103021 C0.488006823,18.3643324 0.245112086,17.9303655 0.113211501,17.4495809 L5.31390838,13.8087573 L7.82730507,13.8087573 Z" fill="#DE2910"></path>
                    <path d="M25.9493177,8.04225634 L15.1370809,8.04225634 L15.1370809,0.834098441 L16.5787378,0.834098441 L16.5787378,5.04078947 L22.5867398,0.834098441 L23.0660673,0.834098441 C23.8712183,0.834098441 24.5985088,1.16638402 25.1218031,1.6983577 L18.1212524,6.60059942 L20.6347125,6.60059942 L25.8354094,2.95901559 C25.9024366,3.20191033 25.9493177,3.45348441 25.9493177,3.71728558 L25.9493177,3.75909844 L21.8904288,6.60053606 L25.9493177,6.60053606 L25.9493177,8.04225634 Z" fill="#EEEEEE"></path>
                    <path d="M0,8.04225634 L0,6.60059942 L4.05819201,6.60059942 L0,3.75985867 L0,3.71734893 C0,2.93095029 0.316447368,2.21949805 0.82751462,1.69905458 L7.82736842,6.60059942 L9.37064327,6.60059942 L9.37064327,5.92088694 L2.22444444,0.916963938 C2.43635965,0.867231969 2.65549708,0.834098441 2.88325049,0.834098441 L3.36188109,0.834098441 L9.37057992,5.04148635 L9.37057992,0.834098441 L10.8122368,0.834098441 L10.8122368,8.04225634 L0,8.04225634 Z" fill="#EEEEEE"></path>
                    <path d="M25.9493177,16.6920078 C25.9493177,17.4784064 25.6328704,18.1898587 25.1218031,18.7103021 L18.1219493,13.8087573 L16.5786745,13.8087573 L16.5786745,14.4884698 L23.7256335,19.4923928 C23.5130214,19.5421248 23.293884,19.5752583 23.0660673,19.5752583 L22.5881969,19.5752583 L16.5787378,15.3678704 L16.5787378,19.5752583 L15.1370809,19.5752583 L15.1370809,12.3671004 L25.9493177,12.3671004 L25.9493177,13.8087573 L21.8918226,13.8087573 L25.9493177,16.6494981 L25.9493177,16.6920078 Z" fill="#EEEEEE"></path>
                    <path d="M9.37057992,19.5752583 L9.37057992,15.3678704 L3.36188109,19.5752583 L2.88325049,19.5752583 C2.07740253,19.5752583 1.35080897,19.2429727 0.82751462,18.7103021 L7.82736842,13.8087573 L5.31384503,13.8087573 L0.113148148,17.4495809 C0.0468810916,17.2066862 0,16.955809 0,16.6920078 L0,16.6494981 L4.05673489,13.8087573 L0,13.8087573 L0,12.3671004 L10.8122368,12.3671004 L10.8122368,19.5752583 L9.37057992,19.5752583 L9.37057992,19.5752583 Z" fill="#EEEEEE"></path>
                    <polygon fill="#DE2910" points="15.1370809 12.3671004 15.1370809 19.5752583 10.8121735 19.5752583 10.8121735 12.3671004 0 12.3671004 0 10.2046784 0 8.04225634 10.8122368 8.04225634 10.8122368 0.834098441 15.1371442 0.834098441 15.1371442 8.04225634 25.9493177 8.04225634 25.9493177 10.2046784 25.9493177 12.3671004"></polygon>
                </g>
            </g>
        </g>
    </g>
</svg>