<svg xmlns="http://www.w3.org/2000/svg" width="24" height="21" viewBox="0 0 24 21">
    <g fill="#93949D" fill-rule="nonzero">
        <path d="M11.743 18.912c3.47 0 6.188-3.396 6.188-7.495 0-4.098-2.717-7.495-6.188-7.495-3.47 0-6.188 3.397-6.188 7.495 0 4.099 2.718 7.495 6.188 7.495zm0-1.917c-2.305 0-4.27-2.456-4.27-5.578 0-3.122 1.965-5.578 4.27-5.578 2.306 0 4.27 2.456 4.27 5.578 0 3.122-1.964 5.578-4.27 5.578z"/>
        <path d="M10.785 4.793V17.17h1.917V4.793z"/>
        <path d="M16.08 7.023c.072-.414.108-.84.108-1.27C16.188 2.628 14.276 0 11.743 0 9.211 0 7.298 2.63 7.298 5.752c0 .322.02.64.06.953l1.902-.242a5.633 5.633 0 0 1-.044-.71c0-2.173 1.21-3.836 2.527-3.836 1.318 0 2.528 1.663 2.528 3.835 0 .323-.027.64-.08.946l1.89.325zM18.863 5.398l-2.43 1.655a.959.959 0 0 0 1.08 1.585l3.059-2.084a.959.959 0 0 0 .354-1.138l-1.014-2.62a.959.959 0 0 0-1.788.694l.74 1.908zM16.363 15.208a.959.959 0 1 1 1.218-1.481l3.069 2.524c.368.303.458.83.21 1.238l-1.534 2.524a.959.959 0 1 1-1.639-.996l1.103-1.814-2.427-1.995zM22.049 13.687a.959.959 0 0 0 .958-1.661l-2.496-1.44a.959.959 0 0 0-.479-.128h-2.478a.959.959 0 0 0 0 1.918h2.222l2.273 1.31zM7.054 7.053a.959.959 0 1 1-1.08 1.585l-3.06-2.084a.959.959 0 0 1-.354-1.138l1.015-2.62a.959.959 0 0 1 1.788.694l-.74 1.908 2.43 1.655zM7.123 15.208a.959.959 0 1 0-1.218-1.481l-3.068 2.524a.959.959 0 0 0-.21 1.238l1.534 2.524a.959.959 0 1 0 1.638-.996l-1.102-1.814 2.426-1.995zM1.438 13.687a.959.959 0 0 1-.958-1.661l2.495-1.44a.959.959 0 0 1 .48-.128h2.478a.959.959 0 0 1 0 1.918H3.71l-2.273 1.31z"/>
    </g>
</svg>
