<svg xmlns="http://www.w3.org/2000/svg" width="64" height="49" viewBox="0 0 64 49">
    <g fill="#14B858" fill-rule="nonzero" opacity=".103">
        <path d="M26 43c-3.86 0-7 3.14-7 7s3.14 7 7 7 7-3.14 7-7-3.14-7-7-7zM50 43c-3.86 0-7 3.14-7 7s3.14 7 7 7 7-3.14 7-7-3.14-7-7-7zM63.52 9.75a2.321 2.321 0 0 0-1.82-.869c-1.057-.125-1.86.424-2.409 1.648-.127.087-2.291 8.346-6.492 24.777l-29.955.147-8.896-33.778C13.684.69 12.77 0 11.723 0H2.299C1.03 0 0 1.002 0 2.239c0 1.236 1.03 2.239 2.3 2.239h7.645l1.907 7.14c.01.045.022.09.036.133l7.096 26.574C19.248 39.31 20.163 40 21.21 40h33.376c1.047 0 1.961-.689 2.225-1.675l7.115-26.642a2.195 2.195 0 0 0-.406-1.932z"/>
        <path d="M35.912 26.344a2.238 2.238 0 0 0 1.585.656c.574 0 1.148-.219 1.586-.656l7.26-7.25a2.237 2.237 0 0 0 0-3.167 2.245 2.245 0 0 0-3.171 0l-3.43 3.424.001-13.111A2.241 2.241 0 0 0 37.501 4a2.241 2.241 0 0 0-2.243 2.24v13.116l-3.43-3.425a2.245 2.245 0 0 0-3.171 0 2.237 2.237 0 0 0 0 3.167l7.255 7.246z"/>
    </g>
</svg>
