<svg xmlns="http://www.w3.org/2000/svg" width="44" height="29" viewBox="0 0 44 29">
    <g fill="#3A3D54" fill-rule="evenodd">
        <path d="M.86 18.071a.86.86 0 0 0 .859-.86V4.567a2.793 2.793 0 0 1 2.79-2.79h34.983a2.793 2.793 0 0 1 2.79 2.79.86.86 0 0 0 1.718 0A4.513 4.513 0 0 0 39.492.057H4.508A4.513 4.513 0 0 0 0 4.566v12.646c0 .474.385.86.86.86zM43.14 10.581a.86.86 0 0 0-.859.86v12.646a2.793 2.793 0 0 1-2.79 2.79H4.509a2.792 2.792 0 0 1-2.79-2.79.86.86 0 0 0-1.718 0 4.513 4.513 0 0 0 4.508 4.508h34.984A4.513 4.513 0 0 0 44 24.087V11.44a.86.86 0 0 0-.86-.86z"/>
        <path d="M38.728 4.983H5.272a.86.86 0 0 0-.86.86V22.81c0 .474.386.86.86.86h33.456a.86.86 0 0 0 .86-.86V5.843a.86.86 0 0 0-.86-.86zM6.132 6.703h9.433V21.95H6.132V6.702zm11.152 0h9.432V21.95h-9.432V6.702zM37.869 21.95h-9.434V6.702h9.434v15.249z"/>
        <path d="M13.469 9.105H8.228a.86.86 0 0 0-.86.86v.791a.86.86 0 0 0 1.717.068h2.533c-1.28 1.686-3.09 4.636-3.115 7.857a.86.86 0 0 0 .852.866h.007a.86.86 0 0 0 .86-.853c.031-4.178 3.821-8.088 3.859-8.126a.859.859 0 0 0-.612-1.463zM24.62 9.105h-5.24a.86.86 0 0 0-.86.86v.791a.86.86 0 0 0 1.716.068h2.534c-1.28 1.686-3.09 4.636-3.116 7.857a.86.86 0 0 0 .853.866h.007a.86.86 0 0 0 .86-.853c.031-4.178 3.821-8.088 3.859-8.126a.86.86 0 0 0-.612-1.463zM30.531 11.616a.86.86 0 0 0 .857-.792h2.534c-1.28 1.686-3.09 4.636-3.116 7.857a.86.86 0 0 0 .853.866h.007c.472 0 .856-.38.859-.853.032-4.178 3.822-8.088 3.86-8.126a.859.859 0 0 0-.612-1.463h-5.241a.86.86 0 0 0-.86.86v.791c0 .475.385.86.86.86zM.86 21.509c.473 0 .859-.386.859-.86a.861.861 0 0 0-.86-.859.861.861 0 0 0-.859.86c0 .473.386.859.86.859zM43.14 7.144a.86.86 0 0 0-.859.86c0 .472.386.859.86.859a.86.86 0 0 0 0-1.719z"/>
    </g>
</svg>
