<?xml version="1.0" encoding="UTF-8"?>
<svg width="26px" height="18px" viewBox="0 0 26 18" version="1.1" xmlns="http://www.w3.org/2000/svg" xmlns:xlink="http://www.w3.org/1999/xlink">
    <!-- Generator: Sketch 58 (84663) - https://sketch.com -->
    <title>china copy</title>
    <desc>Created with Sketch.</desc>
    <g id="Page-1" stroke="none" stroke-width="1" fill="none" fill-rule="evenodd">
        <g id="china-copy" transform="translate(13.000000, 9.000000) scale(-1, 1) rotate(-180.000000) translate(-13.000000, -9.000000) ">
            <rect id="Rectangle" fill="#DE2910" x="0" y="0" width="26" height="18" rx="3"></rect>
            <g id="Group" transform="translate(2.285156, 5.791992)" fill="#FFDE02" fill-rule="nonzero">
                <polygon id="Path" points="2.77037109 7.70611816 3.44131836 5.77776367 5.48234375 5.7351709 3.85518555 4.5023291 4.44666016 2.54731445 2.77043457 3.71363281 1.09414551 2.54725098 1.68562012 4.50226562 0.0584619141 5.73510742 2.0994873 5.7777002"></polygon>
                <polygon id="Path" points="7.10372559 10.1784668 7.34925293 9.68157227 7.89737305 9.60209961 7.50089844 9.21495605 7.59401855 8.66893066 7.10366211 8.92677246 6.61330566 8.66893066 6.7071875 9.21495605 6.30995117 9.60209961 6.85883301 9.68157227"></polygon>
                <polygon id="Path" points="8.54819824 7.28958496 8.79372559 6.79269043 9.3418457 6.71321777 8.94537109 6.32607422 9.03849121 5.78004883 8.54813477 6.0379541 8.05777832 5.7801123 8.15166016 6.3261377 7.75442383 6.71328125 8.30330566 6.79275391"></polygon>
                <polygon id="Path" points="8.54819824 4.40070312 8.79372559 3.90380859 9.3418457 3.82433594 8.94537109 3.43719238 9.03849121 2.89116699 8.54813477 3.14907227 8.05777832 2.89123047 8.15166016 3.43725586 7.75442383 3.82439941 8.30330566 3.90387207"></polygon>
                <polygon id="Path" points="7.10372559 1.51220215 7.34925293 1.01460938 7.89737305 0.935136719 7.50089844 0.548754883 7.59401855 0.00203125 7.10366211 0.259873047 6.61330566 0.00203125 6.7071875 0.548754883 6.30995117 0.935136719 6.85883301 1.01460938"></polygon>
            </g>
        </g>
    </g>
</svg>