<svg xmlns="http://www.w3.org/2000/svg" width="34" height="34" viewBox="0 0 34 34">
    <g fill="#3A3D54" fill-rule="nonzero">
        <path d="M17.168 13.524l-1.788 3.384c.42.84 1.008 1.992 1.788 3.468l-1.992.588-.876-2.628-.876 2.628-.996-.3c-.444-.132-.768-.24-.996-.3.12-.276.72-1.44 1.788-3.468l-1.092-2.04c-.42-.804-.66-1.26-.696-1.344l1.992-.588.876 2.616.864-2.616c.312.084.984.288 2.004.6zm3.192 2.844c0-.06-.012-.156-.024-.264-.096-.42-.36-.624-.792-.624-.432 0-.804.144-1.128.444l-.552-2.136c.288-.3.684-.54 1.2-.744a4.19 4.19 0 0 1 1.56-.3c.72 0 1.32.216 1.8.636.48.42.72 1.056.72 1.908 0 .864-.396 1.728-.816 2.256a5.481 5.481 0 0 1-.744.756c-.3.252-.516.42-.648.504a6.472 6.472 0 0 1-.42.252c-.084.132-.144.216-.156.276l2.724-.3c-.036.252-.084.876-.156 1.872 0 .012-.744.024-2.232.06-1.488.036-2.256.048-2.304.048l-.12-1.98c.504-.156.972-.516 1.416-1.068.444-.564.672-1.092.672-1.596zM28.273 6.656a.848.848 0 0 0 1.201.05.85.85 0 0 0 .051-1.2 17.161 17.161 0 0 0-1.032-1.032.85.85 0 0 0-1.15 1.252c.322.295.635.608.93.93z"/>
        <path d="M1.7 17C1.7 8.564 8.564 1.7 17 1.7c2.529 0 5.034.63 7.245 1.82a.85.85 0 1 0 .806-1.496A17.028 17.028 0 0 0 17 0C7.626 0 0 7.626 0 17c0 3.904 1.356 7.717 3.82 10.737a.848.848 0 0 0 1.195.122.85.85 0 0 0 .122-1.196A15.328 15.328 0 0 1 1.7 17zM31.975 8.946a.85.85 0 1 0-1.497.806A15.323 15.323 0 0 1 32.3 17c0 8.436-6.864 15.3-15.3 15.3-3.514 0-6.946-1.22-9.663-3.437a.85.85 0 1 0-1.074 1.317A17.034 17.034 0 0 0 17 34c9.374 0 17-7.626 17-17 0-2.81-.7-5.596-2.025-8.054z"/>
        <path stroke="#3A3D54" stroke-width=".929" d="M26.192 7.808A12.915 12.915 0 0 0 17 4a12.915 12.915 0 0 0-9.192 3.808A12.915 12.915 0 0 0 4 17c0 3.472 1.352 6.737 3.808 9.192A12.915 12.915 0 0 0 17 30c3.472 0 6.737-1.352 9.192-3.808A12.915 12.915 0 0 0 30 17c0-3.472-1.352-6.737-3.808-9.192zm1.565 14.933l-2.12-1.223a9.681 9.681 0 0 0 1.104-4.112h2.439a12.106 12.106 0 0 1-1.423 5.335zm-11.163 4v2.44a12.107 12.107 0 0 1-5.335-1.424l1.223-2.12a9.682 9.682 0 0 0 4.112 1.104zm.812 0a9.682 9.682 0 0 0 4.112-1.103l1.223 2.119a12.107 12.107 0 0 1-5.335 1.423v-2.44zM17 25.938c-4.928 0-8.938-4.01-8.938-8.938 0-4.928 4.01-8.938 8.938-8.938 4.928 0 8.938 4.01 8.938 8.938 0 4.928-4.01 8.938-8.938 8.938zM4.82 17.405h2.44a9.682 9.682 0 0 0 1.102 4.112l-2.119 1.223a12.108 12.108 0 0 1-1.423-5.335zm1.423-6.147l2.12 1.223a9.681 9.681 0 0 0-1.104 4.112H4.82c.062-1.89.552-3.706 1.424-5.335zm11.163-4V4.82c1.89.062 3.706.552 5.335 1.424l-1.223 2.12a9.682 9.682 0 0 0-4.112-1.104zm-.812 0a9.682 9.682 0 0 0-4.112 1.103l-1.223-2.119a12.108 12.108 0 0 1 5.335-1.423v2.44zm10.147 9.335a9.682 9.682 0 0 0-1.103-4.112l2.119-1.223a12.107 12.107 0 0 1 1.423 5.335h-2.44zm.608-6.038l-2.118 1.223a9.828 9.828 0 0 0-3.01-3.01l1.223-2.118a12.284 12.284 0 0 1 2.174 1.731 12.282 12.282 0 0 1 1.731 2.174zM8.382 8.382a12.283 12.283 0 0 1 2.174-1.731l1.223 2.118c-1.21.77-2.24 1.8-3.01 3.01l-2.118-1.223a12.287 12.287 0 0 1 1.731-2.174zM6.651 23.444l2.118-1.223c.77 1.21 1.8 2.24 3.01 3.01l-1.223 2.118a12.284 12.284 0 0 1-2.174-1.731 12.282 12.282 0 0 1-1.731-2.174zm18.967 2.174a12.283 12.283 0 0 1-2.174 1.731l-1.223-2.118c1.21-.77 2.24-1.8 3.01-3.01l2.118 1.223a12.287 12.287 0 0 1-1.731 2.174z"/>
    </g>
</svg>
