<svg xmlns="http://www.w3.org/2000/svg" width="47" height="47" viewBox="0 0 47 47">
    <g fill="none" fill-rule="nonzero">
        <path fill="#F8CF6A" d="M43.123 46.906v-2.27l-3.026-3.026v-3.026l-3.026-3.026H34.8l-3.026-3.026h-2.27l-1.513 1.513h-2.27l-3.025 3.026v9.835"/>
        <path fill="#EEBC5A" d="M43.123 46.906v-2.27l-3.026-3.026v-3.026l-3.026-3.026H34.8l-3.026-3.026h-2.27l-1.513 1.513h-2.27l-3.025 3.026v9.835"/>
        <path fill="#F8CF6A" d="M41.61 46.906v-.756l-3.026-3.027v-3.026l-3.026-3.026h-2.27l-3.026-3.026h-2.27l-1.513 1.513h-2.27l-1.512 1.513v9.835z"/>
        <path fill="#EEBC5A" d="M26.48 46.906v-2.27l-1.514-1.513v-3.782l-2.27-2.27h-1.513l-2.27-2.27h-2.269l-2.27-2.27h-3.026l-3.026 3.027v3.026L6.81 40.097H4.54L.758 43.88v3.026"/>
        <path fill="#F8CF6A" d="M3.027 41.61l-2.27 2.27v3.026h22.696v-.756l-1.513-1.513v-3.783l-2.27-2.27h-1.513l-2.27-2.27h-2.269l-2.27-2.269H9.835l-1.513 1.513v3.026L6.81 40.097H5.296L3.783 41.61z"/>
        <g fill="#EEBC5A">
            <path d="M18.157 31.775l-1.513-2.27 2.27-2.269 1.513 1.513-.757 3.026zM22.697 22.697h2.27l1.512 2.27-1.513 2.27h-1.513l-2.27-3.027zM4.54 32.532l-1.513-2.27H1.513l-.756 1.513v2.27l3.026.757zM44.636 3.783A3.026 3.026 0 0 1 41.61.757a3.026 3.026 0 0 1-3.026 3.026A3.026 3.026 0 0 1 41.61 6.81a3.026 3.026 0 0 1 3.026-3.027zM38.584 8.323a3.026 3.026 0 0 1-3.026-3.026 3.026 3.026 0 0 1-3.026 3.026 3.026 3.026 0 0 1 3.026 3.026 3.026 3.026 0 0 1 3.026-3.026z"/>
        </g>
        <path fill="#BC8F6F" d="M5.296 15.132h-2.27a2.27 2.27 0 1 0 0 4.539h2.27"/>
        <path fill="#CB9E78" d="M.896 18.158a2.262 2.262 0 0 0 2.13 1.513h2.27v-3.026h-2.27c-.986 0-1.817.633-2.13 1.513z"/>
        <path fill="#656665" d="M11.348 21.184v12.861l-.107-.107a15.13 15.13 0 0 1-4.432-10.7v-2.054"/>
        <path fill="#999" d="M6.81 23.238c0 3.285 1.082 6.45 3.025 9.049v-9.59H6.81v.541z"/>
        <path fill="#656665" d="M11.348 13.618V.758l-.107.107a15.13 15.13 0 0 0-4.432 10.699v2.054"/>
        <path fill="#999" d="M6.81 11.564v2.054h3.025V2.515a15.116 15.116 0 0 0-3.026 9.049z"/>
        <path fill="#656665" d="M5.296 13.618h7.566v7.566H5.296z"/>
        <path fill="#999" d="M5.296 15.132h5.296v6.052H5.296z"/>
        <path fill="#656665" d="M41.61 21.184h3.026c.836 0 1.513-.677 1.513-1.513v-4.54c0-.835-.677-1.513-1.513-1.513H41.61c-.836 0-1.513.678-1.513 1.514v4.539c0 .836.677 1.513 1.513 1.513z"/>
        <path fill="#999" d="M40.097 15.132v4.539c0 .836.677 1.513 1.513 1.513h3.026v-6.052h-4.54z"/>
        <path fill="#BC8F6F" d="M40.097 15.132H12.862v4.539h27.235"/>
        <path fill="#CB9E78" d="M37.827 16.645H12.862v3.026h24.965"/>
        <path fill="#111221" d="M27.236 46.906h-1.513V44.95l-1.292-1.292a.754.754 0 0 1-.221-.535v-3.469l-1.827-1.826h-1.2a.753.753 0 0 1-.534-.222L18.6 35.558h-1.957a.753.753 0 0 1-.535-.222l-2.048-2.048h-2.4L9.08 35.871v2.713c0 .2-.08.394-.222.535l-1.513 1.513a.753.753 0 0 1-.535.222H4.853l-3.34 3.34v2.712H0V43.88c0-.2.08-.393.222-.535l3.783-3.783a.753.753 0 0 1 .535-.221h1.956l1.07-1.07v-2.713c0-.2.08-.393.221-.535l3.027-3.026a.753.753 0 0 1 .534-.222h3.027c.2 0 .393.08.535.222l2.047 2.048h1.957c.201 0 .393.08.535.222l2.048 2.048h1.2c.2 0 .393.079.534.221l2.27 2.27a.754.754 0 0 1 .222.535v3.47l1.291 1.29a.754.754 0 0 1 .222.536v2.27z"/>
        <path fill="#111221" d="M43.88 46.906h-1.513V44.95l-2.805-2.805a.754.754 0 0 1-.222-.535v-2.713l-2.582-2.582H34.8a.753.753 0 0 1-.535-.222l-2.804-2.805h-1.643l-1.292 1.292a.753.753 0 0 1-.535.222h-1.956l-2.805 2.804-1.07-1.07 3.027-3.026a.753.753 0 0 1 .535-.222h1.956l1.292-1.291a.753.753 0 0 1 .534-.222h2.27c.201 0 .393.08.535.222l2.804 2.805h1.957c.201 0 .393.079.535.221l3.026 3.026a.754.754 0 0 1 .221.535v2.713l2.805 2.805a.754.754 0 0 1 .222.535v2.27zM21.405 44.415l-1.291-1.292h-1.2a.753.753 0 0 1-.535-.221l-1.513-1.513a.754.754 0 0 1-.222-.535v-1.2l-1.07-1.07h-2.712v-1.513h3.026c.201 0 .393.08.535.222l1.513 1.513a.754.754 0 0 1 .221.535v1.2l1.07 1.07h1.2c.201 0 .393.079.535.221l1.513 1.513-1.07 1.07z"/>
        <path fill="#111221" d="M38.049 45.928l-1.291-1.291h-1.2a.753.753 0 0 1-.535-.222l-1.513-1.513a.754.754 0 0 1-.222-.535v-1.2l-1.07-1.07h-2.713v-1.513h3.027c.2 0 .393.08.534.222l1.514 1.513a.754.754 0 0 1 .221.535v1.2l1.07 1.07h1.2c.201 0 .393.079.535.221l1.513 1.513-1.07 1.07zM7.344 45.928l-1.07-1.07 1.513-1.513a.753.753 0 0 1 .535-.222h1.2l1.292-1.291a.753.753 0 0 1 .534-.222h1.514v1.513h-1.2l-1.292 1.292a.753.753 0 0 1-.535.222h-1.2l-1.29 1.291zM40.097 20.427H12.862a.756.756 0 0 1-.757-.756v-4.54c0-.417.338-.756.757-.756h27.235v1.513H13.618v3.026h26.479v1.513z"/>
        <path fill="#111221" d="M44.636 21.94H41.61a2.273 2.273 0 0 1-2.27-2.27v-4.538a2.273 2.273 0 0 1 2.27-2.27h3.026a2.273 2.273 0 0 1 2.27 2.27v4.539a2.273 2.273 0 0 1-2.27 2.27zm-3.026-7.565a.757.757 0 0 0-.757.757v4.539c0 .416.34.756.757.756h3.026c.418 0 .757-.34.757-.756v-4.54a.757.757 0 0 0-.757-.756H41.61zM5.296 20.427h-2.27A3.03 3.03 0 0 1 0 17.401a3.03 3.03 0 0 1 3.027-3.026h2.27v1.513h-2.27c-.835 0-1.514.679-1.514 1.513 0 .835.679 1.513 1.514 1.513h2.27v1.513z"/>
        <path fill="#111221" d="M12.862 21.94H5.296a.756.756 0 0 1-.756-.756v-7.566c0-.417.338-.756.756-.756h7.566c.418 0 .756.339.756.756v7.566a.757.757 0 0 1-.756.756zm-6.81-1.513h6.053v-6.052H6.053v6.052z"/>
        <path fill="#111221" d="M12.105 13.618h-1.513V2.738a14.263 14.263 0 0 0-3.026 8.826v2.054H6.053v-2.054C6.053 7.32 7.706 3.33 10.705.33l.11-.11a.756.756 0 0 1 1.29.537v12.861zM11.348 34.802a.754.754 0 0 1-.534-.221l-.108-.108a15.79 15.79 0 0 1-4.653-11.235v-2.054h1.513v2.054c0 3.239 1.063 6.314 3.026 8.827V21.184h1.513v12.861a.755.755 0 0 1-.757.757zM19.67 32.532h-1.513a.758.758 0 0 1-.63-.337l-1.512-2.27c-.2-.299-.16-.7.094-.954l2.27-2.27a.756.756 0 0 1 1.07 0l1.513 1.513c.187.189.264.461.199.72l-.757 3.025a.757.757 0 0 1-.734.573zm-1.108-1.513h.517l.51-2.037-.675-.676-1.296 1.296.944 1.417zM24.966 27.993h-1.513a.757.757 0 0 1-.605-.303l-2.27-3.026a.756.756 0 0 1 .07-.989l1.514-1.513a.753.753 0 0 1 .535-.222h2.27c.252 0 .488.127.629.337l1.513 2.27c.17.254.17.584 0 .838l-1.513 2.27a.756.756 0 0 1-.63.338zm-1.135-1.513h.73l1.009-1.513-1.009-1.514H23.01l-.828.828 1.65 2.199zM3.784 35.558a.765.765 0 0 1-.184-.023L.574 34.78A.756.756 0 0 1 0 34.045v-2.27a.76.76 0 0 1 .08-.338l.756-1.513a.757.757 0 0 1 .677-.418h1.514c.252 0 .488.126.629.336l1.513 2.27c.13.195.162.437.088.659L4.5 35.04a.755.755 0 0 1-.716.517zm-2.27-2.104l1.773.444.418-1.254-1.083-1.625h-.64l-.469.935v1.5zM41.61 7.566a.756.756 0 0 1-.757-.756 2.273 2.273 0 0 0-2.27-2.27.756.756 0 1 1 0-1.513 2.273 2.273 0 0 0 2.27-2.27.756.756 0 1 1 1.514 0 2.273 2.273 0 0 0 2.27 2.27.756.756 0 1 1 0 1.513 2.273 2.273 0 0 0-2.27 2.27.757.757 0 0 1-.757.756zm-.759-3.783c.288.216.543.473.759.76.216-.287.471-.544.759-.76a3.826 3.826 0 0 1-.759-.758 3.826 3.826 0 0 1-.759.758zM35.558 12.105a.756.756 0 0 1-.757-.756 2.273 2.273 0 0 0-2.27-2.27.756.756 0 1 1 0-1.513 2.273 2.273 0 0 0 2.27-2.27.756.756 0 1 1 1.513 0 2.273 2.273 0 0 0 2.27 2.27.756.756 0 1 1 0 1.513 2.273 2.273 0 0 0-2.27 2.27.757.757 0 0 1-.756.756zm-.759-3.782c.287.215.543.472.759.758.215-.286.471-.543.758-.758a3.826 3.826 0 0 1-.758-.76 3.826 3.826 0 0 1-.759.76z"/>
    </g>
</svg>
