<svg xmlns="http://www.w3.org/2000/svg" width="20" height="20" viewBox="0 0 20 20">
    <g fill="#93949D" fill-rule="nonzero">
        <path d="M10 20C4.486 20 0 15.514 0 10S4.486 0 10 0s10 4.486 10 10-4.486 10-10 10zm0-17.692c-4.242 0-7.692 3.45-7.692 7.692s3.45 7.692 7.692 7.692 7.692-3.45 7.692-7.692c0-4.241-3.45-7.692-7.692-7.692z"/>
        <path d="M11.207 7.875c0-.042-.014-.098-.028-.168-.126-.49-.518-.742-1.204-.742-.406 0-.84.07-1.274.21l-.714.21c-.042-.154-.252-.826-.602-2.044.322-.154.756-.294 1.302-.392a7.743 7.743 0 0 1 1.554-.168c.966 0 1.764.21 2.366.616.602.406.91 1.064.91 1.96 0 .518-.098.98-.28 1.414-.378.84-1.302 1.708-2.632 2.086l.154 1.148c-.476.014-1.246.056-2.296.126l.014-.364-.028-1.96c.154 0 .42-.07.812-.224.406-.154.728-.308.994-.448.518-.294.952-.77.952-1.26zm-2.422 6.86c-.434-.434-.42-1.19-.014-1.624.21-.21.504-.322.882-.322.392 0 .686.112.896.322.406.434.42 1.19-.014 1.624-.21.21-.49.322-.868.322s-.672-.112-.882-.322z"/>
    </g>
</svg>
