<svg xmlns="http://www.w3.org/2000/svg" width="25" height="22" viewBox="0 0 25 22">
    <path fill="#3A3D54" fill-rule="nonzero" d="M.441 10.458l5.754 2.147 2.226 7.162a.677.677 0 0 0 1.076.324l3.207-2.615a.957.957 0 0 1 1.167-.032l5.784 4.2a.678.678 0 0 0 1.062-.41L24.955.85a.678.678 0 0 0-.908-.771L.434 9.189a.679.679 0 0 0 .007 1.269zm7.622 1.004l11.244-6.926c.202-.124.41.15.236.31l-9.28 8.627c-.326.303-.536.71-.596 1.15l-.316 2.343c-.042.313-.481.344-.567.041l-1.216-4.271a1.132 1.132 0 0 1 .495-1.274z"/>
</svg>
