<svg width="26" height="18" xmlns="http://www.w3.org/2000/svg" xmlns:xlink="http://www.w3.org/1999/xlink"><defs><rect id="a" x="0" y="0" width="26" height="18" rx="3"/></defs><g fill="none" fill-rule="evenodd"><mask id="b" fill="#fff"><use xlink:href="#a"/></mask><use fill="#D8D8D8" xlink:href="#a"/><g mask="url(#b)" fill-rule="nonzero"><path fill="#00247D" d="M0 12.809h4.057L0 15.649zM3.362-.166H9.37v4.207zM16.579 4.04V-.165h6.008zM0 5.6V2.76L4.058 5.6zM22.59 18.575h-6.01v-4.207zM21.89 5.6l4.06-2.84V5.6h-4.06zM21.892 12.809h4.057v2.84zM9.37 18.575H3.363l6.009-4.207z"/><path d="M18.121 5.6l7-4.902c.34.346.583.78.714 1.261l-5.2 3.642H18.12zM9.37 5.6H7.828l-7-4.9a2.877 2.877 0 0 1 1.397-.783l7.147 5.004v.68zM16.579 12.809h1.543l7 4.901a2.878 2.878 0 0 1-1.396.782l-7.147-5.004v-.68zM7.827 12.809l-7 4.901a2.879 2.879 0 0 1-.714-1.26l5.2-3.641h2.514z" fill="#DE2910"/><path d="M25.95 7.042H15.136V-.166h1.442v4.207l6.008-4.207h.48c.804 0 1.532.332 2.055.864l-7 4.903h2.513l5.2-3.642c.067.243.114.494.114.758v.042L21.89 5.601h4.06v1.441zM0 7.042V5.601h4.058L0 2.76v-.043C0 1.931.316 1.22.828.7l7 4.902H9.37v-.68L2.224-.083c.212-.05.431-.083.66-.083h.478L9.37 4.041V-.166h1.441v7.208H0zM25.95 15.692c0 .786-.317 1.498-.828 2.018l-7-4.901h-1.543v.68l7.147 5.003c-.213.05-.432.083-.66.083h-.478l-6.01-4.207v4.207h-1.44v-7.208h10.811v1.442h-4.057l4.057 2.84v.043zM9.37 18.575v-4.207l-6.008 4.207h-.479a2.873 2.873 0 0 1-2.055-.865l7-4.901H5.313l-5.2 3.64A2.862 2.862 0 0 1 0 15.693v-.043l4.057-2.84H0v-1.442h10.812v7.208H9.371z" fill="#EEE"/><path fill="#DE2910" d="M15.137 11.367v7.208h-4.325v-7.208H0V7.042h10.812V-.166h4.325v7.208H25.95V11.367z"/></g></g></svg>