<svg xmlns="http://www.w3.org/2000/svg" width="21" height="22"><g fill="#93949D"><path d="M2 9.486v-2.2a3.4 3.4 0 0 1 3.4-3.4h2.2a1 1 0 1 0 0-2H5.4a5.4 5.4 0 0 0-5.4 5.4v2.2a1 1 0 0 0 2 0z"/><path d="M6.186 2.886L5.007 4.064A1 1 0 1 0 6.421 5.48l1.886-1.886a1 1 0 0 0 0-1.414L6.421.293a1 1 0 0 0-1.414 1.414l1.179 1.179zm12.043 9.628v2.2a3.4 3.4 0 0 1-3.4 3.4h-2.2a1 1 0 0 0 0 2h2.2a5.4 5.4 0 0 0 5.4-5.4v-2.2a1 1 0 1 0-2 0z"/><path d="M15.221 17.936a1 1 0 0 0-1.414-1.415l-1.886 1.886a1 1 0 0 0 0 1.414l1.886 1.886a1 1 0 0 0 1.414-1.414l-1.178-1.179 1.178-1.178zM9.096 8.448a3.038 3.038 0 1 1 3.57 3.57 1 1 0 1 0 .388 1.962 5.038 5.038 0 1 0-5.92-5.92 1 1 0 0 0 1.962.388z"/><path d="M8.115 17.999a5 5 0 1 0 0-10 5 5 0 0 0 0 10zm0-2a3 3 0 1 1 0-6 3 3 0 0 1 0 6z"/></g></svg>