<svg xmlns="http://www.w3.org/2000/svg" width="27" height="26"><path fill="#303450" d="M21.735.851c2.816-.005 3.865 2.07 4.07 2.634.25.692.336 1.334.344 2.084l-.001.329v.055l-.002.077-.02.826-2.355 4.065a2.633 2.633 0 0 1 2.374 2.45l.005.17v9.676a2.15 2.15 0 0 1-1.996 2.145l-.154.005H3.004a2.15 2.15 0 0 1-2.145-1.996l-.005-.154v-9.68a2.63 2.63 0 0 1 2.211-2.595l.165-.021L.854 6.78v-.81l-.003-.04v-.031c-.014-.896.058-1.623.344-2.413a4.01 4.01 0 0 1 .905-1.47c.71-.721 1.67-1.11 2.847-1.16h9.32c3.846 0 6.335-.002 7.468-.005zM3.106 20.675v2.44h2.45c-.132-1.192-1.125-2.33-2.45-2.44zm20.791 0c-1.054.088-2.373 1.099-2.521 2.44h2.521v-2.44zm-14.45-7.513h-6.34v5.384c2.099.077 4.605 2.471 4.707 4.568h11.303c.102-2.097 2.681-4.491 4.78-4.568v-5.384h-6.34v3.708a2.15 2.15 0 0 1-2.15 2.15h-3.81a2.15 2.15 0 0 1-2.15-2.15v-3.708zm5.008-.3h-1.906a1.15 1.15 0 0 0-1.15 1.15v1.905c0 .636.515 1.15 1.15 1.15h1.906a1.15 1.15 0 0 0 1.15-1.15v-1.905a1.15 1.15 0 0 0-1.15-1.15zm8.893-5.705H3.652l2.174 3.752h15.348l2.174-3.752zm-1.55-4.052H5.202c-.61 0-1.062.128-1.382.388l-.114.103c-.298.303-.473.753-.553 1.308h20.693c-.079-.555-.254-1.005-.552-1.308-.324-.329-.81-.491-1.496-.491z"/></svg>