<svg width="26" height="18" xmlns="http://www.w3.org/2000/svg"><g transform="matrix(1 0 0 -1 0 18)" fill="none" fill-rule="evenodd"><rect fill="#DE2910" width="26" height="18" rx="3"/><g fill="#FFDE02" fill-rule="nonzero"><path d="M5.056 13.498l.67-1.928 2.041-.043-1.627-1.233.592-1.955-1.676 1.167-1.677-1.167.592 1.955-1.627 1.233 2.04.043zM9.389 15.97l.245-.496.549-.08-.397-.387.093-.546-.49.258-.49-.258.093.546-.397.387.549.08zM10.833 13.082l.246-.497.548-.08-.396-.387.093-.546-.49.258-.491-.258.094.546-.397.387.548.08zM10.833 10.193l.246-.497.548-.08-.396-.387.093-.546-.49.258-.491-.258.094.546-.397.387.548.08zM9.389 7.304l.245-.497.549-.08-.397-.386.093-.547-.49.258-.49-.258.093.547-.397.386.549.08z"/></g></g></svg>