<svg xmlns="http://www.w3.org/2000/svg" width="24" height="16"><defs><linearGradient id="a" x1="-24.96%" x2="116.074%" y1="53.305%" y2="41.135%"><stop offset="0%" stop-color="#F87E35"/><stop offset="34.259%" stop-color="#FDC01C"/><stop offset="55.423%" stop-color="#FDD668"/><stop offset="77.499%" stop-color="#F4AA0D"/><stop offset="100%" stop-color="#FFE88A"/></linearGradient><linearGradient id="b" x1="-24.96%" x2="116.074%" y1="90.254%" y2="-57.977%"><stop offset="0%" stop-color="#F87E35"/><stop offset="34.259%" stop-color="#FDC01C"/><stop offset="55.423%" stop-color="#FDD668"/><stop offset="77.499%" stop-color="#F4AA0D"/><stop offset="100%" stop-color="#FFE88A"/></linearGradient></defs><g fill="none" fill-rule="evenodd"><path fill="url(#a)" d="M3.64 13.03v1.612c0 .39.317.707.708.707h15.304c.39 0 .707-.317.707-.707V13.03H3.641z"/><path fill="url(#b)" d="M24 4.046a2.286 2.286 0 0 0-2.284-2.284 2.286 2.286 0 0 0-2.283 2.284c0 .605.237 1.156.623 1.565a3.736 3.736 0 0 1-2.792 1.253 3.751 3.751 0 0 1-3.66-2.956c.419-.414.68-.99.68-1.624A2.286 2.286 0 0 0 12 0a2.286 2.286 0 0 0-2.284 2.284c0 .635.261 1.21.68 1.624a3.751 3.751 0 0 1-3.66 2.956A3.736 3.736 0 0 1 3.944 5.61c.386-.409.623-.96.623-1.565a2.286 2.286 0 0 0-2.283-2.284A2.286 2.286 0 0 0 0 4.046c0 1.091.77 2.006 1.794 2.23.203 1.673.595 3.711 1.351 5.34h17.71c.756-1.629 1.148-3.667 1.35-5.34A2.287 2.287 0 0 0 24 4.046z"/></g></svg>