<svg xmlns="http://www.w3.org/2000/svg" width="35" height="29"><g fill="#3A3D54"><path d="M9.444 11.52a2.552 2.552 0 0 0-3.122 1.803 2.552 2.552 0 0 0 1.803 3.121 2.552 2.552 0 0 0 3.121-1.802 2.552 2.552 0 0 0-1.802-3.122zm-.88 3.283a.85.85 0 0 1 .44-1.641.85.85 0 0 1-.44 1.641zm7.446-1.523a2.552 2.552 0 0 0-3.122 1.802 2.552 2.552 0 0 0 1.802 3.122 2.552 2.552 0 0 0 3.12-1.804 2.552 2.552 0 0 0-1.802-3.121zm-.88 3.282a.85.85 0 0 1 .44-1.641.85.85 0 0 1-.44 1.641zm-7.445 1.524a2.552 2.552 0 0 0-3.122 1.802 2.552 2.552 0 0 0 1.802 3.122 2.552 2.552 0 0 0 3.122-1.803 2.552 2.552 0 0 0-1.802-3.121zm-.88 3.282a.85.85 0 0 1 .44-1.641.85.85 0 0 1-.44 1.641zm7.445-1.523a2.552 2.552 0 0 0-3.122 1.802 2.552 2.552 0 0 0 1.803 3.122 2.552 2.552 0 0 0 3.121-1.802 2.552 2.552 0 0 0-1.802-3.122zm-.88 3.283a.85.85 0 0 1 .44-1.642.85.85 0 0 1-.44 1.642zm8.7-18.897a2.552 2.552 0 0 0-3.122 1.802 2.552 2.552 0 0 0 1.802 3.122 2.552 2.552 0 0 0 3.122-1.802 2.552 2.552 0 0 0-1.803-3.122zm-.88 3.283a.85.85 0 0 1 .44-1.642.85.85 0 0 1-.44 1.642zm5.685 5.042a2.552 2.552 0 0 0-3.121 1.802 2.552 2.552 0 0 0 1.802 3.122 2.552 2.552 0 0 0 3.122-1.803 2.552 2.552 0 0 0-1.803-3.121zm-.88 3.282a.85.85 0 0 1 .44-1.641.85.85 0 0 1-.44 1.641z"/><path d="M32.797 3.587L19.667.07a2.552 2.552 0 0 0-3.122 1.802l-2.009 7.496-7.495-2.009a2.552 2.552 0 0 0-3.122 1.803L.401 22.29a2.552 2.552 0 0 0 1.802 3.122l13.13 3.518a2.552 2.552 0 0 0 3.122-1.802l2.009-7.496 7.495 2.009a2.552 2.552 0 0 0 3.122-1.803l3.518-13.13a2.552 2.552 0 0 0-1.802-3.122zM16.814 26.69a.85.85 0 0 1-1.04.6L2.643 23.772a.85.85 0 0 1-.6-1.04L5.56 9.6A.85.85 0 0 1 6.6 9l13.13 3.518a.85.85 0 0 1 .601 1.04L16.814 26.69zm12.625-7.29a.85.85 0 0 1-1.039.6l-7.495-2.008 1.07-3.994a2.552 2.552 0 0 0-1.803-3.121l-3.993-1.07 2.008-7.496a.85.85 0 0 1 1.04-.6l13.131 3.518a.85.85 0 0 1 .6 1.04L29.44 19.4z"/></g></svg>