<svg xmlns="http://www.w3.org/2000/svg" width="56" height="51"><g fill="#0F97FF" opacity=".103"><path d="M55.493 18.308l-10.69-12a2 2 0 0 0-1.246-.653L2.247.515C.737.327-.421 1.827.142 3.241l21.527 54c.563 1.41 2.431 1.704 3.4.533L55.54 20.912a2 2 0 0 0-.048-2.604zM24.135 52.625L5.111 4.902l37.206 4.63 9.048 10.155-27.23 32.938z"/><path d="M29.863 23.986L44.39 9.938l-2.78-2.876-15.04 14.544a2 2 0 0 0-.595 1.202l-3.961 33.457 3.972.47 3.877-32.75z"/><path d="M3.289.97L.71 4.03l24.925 21a2 2 0 0 0 1.541.454l26.076-3.323-.506-3.968-25.205 3.212L3.289.971z"/></g></svg>