<svg xmlns="http://www.w3.org/2000/svg" width="26" height="26"><path d="M6.006 8.3H.826a.416.416 0 0 0-.416.417v16.64c0 .23.186.416.416.416h5.18c.23 0 .416-.186.416-.416V8.717a.416.416 0 0 0-.416-.416zM3.418.028A3.42 3.42 0 0 0 0 3.443a3.42 3.42 0 0 0 3.418 3.415 3.42 3.42 0 0 0 3.415-3.415A3.419 3.419 0 0 0 3.418.028zm15.763 7.859c-2.08 0-3.618.894-4.55 1.91v-1.08a.416.416 0 0 0-.417-.416h-4.96a.416.416 0 0 0-.417.416v16.64c0 .23.186.416.416.416h5.169c.23 0 .416-.186.416-.416v-8.233c0-2.774.754-3.855 2.688-3.855 2.106 0 2.273 1.733 2.273 3.998v8.09c0 .23.186.416.416.416h5.17c.23 0 .417-.186.417-.416V16.23c0-4.126-.787-8.343-6.62-8.343z" fill="#3A3D54"/></svg>