<svg xmlns="http://www.w3.org/2000/svg" width="57" height="52"><g fill="#AB61FF" opacity=".1"><path d="M28.789 36.273h.445c4.077-.07 7.375-1.506 9.81-4.252 5.357-6.05 4.467-16.422 4.37-17.412-.348-7.43-3.855-10.985-6.75-12.643C34.509.725 31.99.056 29.179 0h-.236c-1.545 0-4.578.25-7.487 1.91-2.922 1.659-6.484 5.214-6.832 12.7-.097.99-.988 11.36 4.37 17.41 2.42 2.747 5.718 4.183 9.796 4.253zm-10.45-21.315c0-.042.013-.084.013-.112.46-9.995 7.542-11.068 10.576-11.068h.167c3.757.083 10.144 1.617 10.575 11.068 0 .042 0 .084.014.112.014.098.988 9.577-3.437 14.568-1.753 1.98-4.091 2.955-7.166 2.983h-.14c-3.06-.028-5.412-1.004-7.152-2.983-4.41-4.963-3.465-14.484-3.45-14.568z"/><path d="M56.996 53.56v-.042c0-.111-.014-.222-.014-.348-.083-2.752-.263-9.188-6.286-11.246-.042-.014-.097-.027-.139-.041-6.258-1.599-11.462-5.213-11.518-5.255a1.87 1.87 0 0 0-2.608.459 1.877 1.877 0 0 0 .458 2.613c.235.167 5.758 4.018 12.67 5.797 3.232 1.154 3.593 4.615 3.69 7.785 0 .125 0 .236.014.347.014 1.251-.07 3.184-.291 4.296-2.248 1.279-11.06 5.7-24.465 5.7-13.35 0-22.217-4.435-24.479-5.714-.222-1.112-.32-3.045-.291-4.296 0-.11.014-.222.014-.347.097-3.17.457-6.631 3.69-7.785 6.911-1.78 12.434-5.644 12.67-5.797a1.877 1.877 0 0 0 .458-2.613 1.87 1.87 0 0 0-2.609-.459c-.055.042-5.231 3.656-11.517 5.255-.056.014-.097.028-.14.041C.282 43.982.102 50.418.019 53.157c0 .125 0 .236-.014.347v.042c-.014.723-.028 4.434.707 6.297.14.362.39.667.722.876.416.278 10.394 6.645 27.088 6.645 16.694 0 26.671-6.381 27.087-6.645a1.86 1.86 0 0 0 .722-.876c.694-1.849.68-5.56.666-6.283z"/></g></svg>