<svg xmlns="http://www.w3.org/2000/svg" width="21" height="27"><g fill="none" fill-rule="evenodd"><path fill="#0C0E1C" d="M20.936 17.536a.982.982 0 0 0-.919-.632h-1.882V4.897A1.9 1.9 0 0 0 16.235 3H4.765a1.9 1.9 0 0 0-1.901 1.897v12.007H.983a.979.979 0 1 0-.653 1.713l8.907 7.903c.72.64 1.806.64 2.526 0l8.907-7.903a.98.98 0 0 0 .266-1.08z"/><path fill="#B54F4F" stroke="#000" stroke-opacity=".07" d="M20.469 14.714a.482.482 0 0 0-.452-.31h-2.382V1.897A1.4 1.4 0 0 0 16.235.5H4.765a1.4 1.4 0 0 0-1.401 1.397v12.507H.983a.479.479 0 1 0-.321.84l8.906 7.903a1.404 1.404 0 0 0 1.864 0l8.906-7.903a.48.48 0 0 0 .13-.53z"/></g></svg>