<svg xmlns="http://www.w3.org/2000/svg" width="41" height="31"><g fill="#3A3D54"><path d="M7.056 19.176a.817.817 0 0 0-1.115-.3l-2.054 1.187a.817.817 0 0 0 .816 1.414l2.054-1.186a.817.817 0 0 0 .3-1.115zm1.678 2.905a.817.817 0 0 0-1.116-.299L.771 25.735a.817.817 0 0 0 .817 1.415l6.847-3.953a.817.817 0 0 0 .299-1.116zm1.677 2.906a.817.817 0 0 0-1.115-.3l-3.424 1.977a.817.817 0 0 0 .817 1.415l3.423-1.977a.817.817 0 0 0 .3-1.115zM30.5 9.515a5.002 5.002 0 0 0-3.058-2.346 5.002 5.002 0 0 0-3.82.503 5.002 5.002 0 0 0-2.347 3.058 5.003 5.003 0 0 0 .503 3.82 5.002 5.002 0 0 0 3.058 2.346 4.998 4.998 0 0 0 3.82-.503A5.041 5.041 0 0 0 30.5 9.515zm-2.66 5.464a3.38 3.38 0 0 1-2.582.34 3.38 3.38 0 0 1-2.065-1.585 3.38 3.38 0 0 1-.34-2.582 3.38 3.38 0 0 1 1.585-2.065 3.38 3.38 0 0 1 2.581-.34 3.38 3.38 0 0 1 2.066 1.585 3.406 3.406 0 0 1-1.245 4.647z"/><path d="M40.974 3.94a.817.817 0 0 0-.409-.708A16.85 16.85 0 0 0 32.317.985a16.64 16.64 0 0 0-1.463.054 16.776 16.776 0 0 0-7.035 2.183l-.004.002-.017.01-.026.016-.026.016-3.17 2.164A14.706 14.706 0 0 0 6.25 9.168a.817.817 0 0 0 .178 1.291l4.085 2.29-1.482 2.1a3.276 3.276 0 0 0-.16 3.517l3.15 5.456a3.276 3.276 0 0 0 3.125 1.62l2.56-.234-.059 4.684a.816.816 0 0 0 1.03.798 14.712 14.712 0 0 0 3.518-1.464 14.73 14.73 0 0 0 6.882-9.075l3.459-1.662.026-.014.029-.015.016-.01.004-.002a16.775 16.775 0 0 0 6.186-6.242 16.852 16.852 0 0 0 2.178-8.266zM8.21 9.587a13.094 13.094 0 0 1 10.518-2.893l-7.07 4.827L8.21 9.587zm2.154 6.204l1.268-1.797.745 1.29-2.197 2.05c-.2-.507-.136-1.09.184-1.543zm.64 3.007l2.211-2.062.786 1.362-2.55 1.472-.447-.772zm1.263 2.187l2.55-1.473.787 1.362-2.89.884-.447-.773zm2.73 2.83a1.64 1.64 0 0 1-1.428-.611l2.873-.878.745 1.29-2.19.2zm6.38 3.997a13.16 13.16 0 0 1-2.084.972l.05-3.955 7.715-3.708a13.095 13.095 0 0 1-5.68 6.69zm10.417-10.779l-12.933 6.216-6.074-10.52 8.37-5.718.025-.016 3.454-2.36A15.15 15.15 0 0 1 30.53 2.71l5.88 10.183a15.147 15.147 0 0 1-4.615 4.14zm5.609-5.683l-5.04-8.73c2.43.031 4.83.65 6.97 1.795a15.218 15.218 0 0 1-1.93 6.935z"/></g></svg>