<svg xmlns="http://www.w3.org/2000/svg" width="34" height="26"><g fill="none" fill-rule="evenodd"><path fill="#0C0E1C" d="M27.847 22.2L18.651 8.758a2 2 0 0 0-3.302 0l-9.196 13.44a2 2 0 0 0 2.209 3.05L17 22.74l8.638 2.51a2 2 0 0 0 2.209-3.05z"/><path fill="#ECAE1F" stroke="#EEE8E8" stroke-opacity=".07" d="M27.434 20.328a1.5 1.5 0 0 1-1.656 2.287L17 20.065l-8.778 2.55a1.5 1.5 0 0 1-1.656-2.287l9.196-13.44a1.5 1.5 0 0 1 2.476 0l9.196 13.44z"/><path fill="#0C0E1C" d="M32.817 16.31L18.342 3.215a2 2 0 0 0-2.684 0L1.183 16.311a2 2 0 0 0 1.696 3.451L17 17.222l14.121 2.54a2 2 0 0 0 1.696-3.451z"/><path fill="#ECAE1F" stroke="#EEE8E8" stroke-opacity=".07" d="M32.482 14.682a1.5 1.5 0 0 1-1.272 2.588l-14.121-2.54h-.178l-14.12 2.54a1.5 1.5 0 0 1-1.273-2.588L15.994 1.585a1.5 1.5 0 0 1 2.012 0l14.476 13.097z"/></g></svg>