<svg xmlns="http://www.w3.org/2000/svg" width="72" height="50"><path fill="#E5AF32" d="M64.266 0H7.734C3.47 0 0 3.47 0 7.734v56.532C0 68.53 3.47 72 7.734 72h56.532C68.53 72 72 68.53 72 64.266V7.734C72 3.47 68.53 0 64.266 0zM22.78 35.966l-2.33-3.262 2.33-3.261v6.523zm-18.56 28.3V7.734A3.52 3.52 0 0 1 7.734 4.22H23.63a7.686 7.686 0 0 0-.849 3.515v14.45l-6.638 9.294a2.11 2.11 0 0 0 0 2.452l6.638 9.294v21.042c0 1.265.308 2.46.849 3.515H7.734a3.52 3.52 0 0 1-3.515-3.515zm63.562 0a3.52 3.52 0 0 1-3.515 3.515h-33.75A3.52 3.52 0 0 1 27 64.266V7.734a3.52 3.52 0 0 1 3.516-3.515h33.75a3.52 3.52 0 0 1 3.515 3.515v56.532zM46.545 41.862l-6.609 3.377a1 1 0 0 1-1.442-1.048l1.25-7.833-5.616-5.603a1 1 0 0 1 .551-1.696l7.837-1.231 3.592-7.073a1 1 0 0 1 1.784 0l3.592 7.073 7.837 1.231a1 1 0 0 1 .551 1.696l-5.616 5.603 1.25 7.833a1 1 0 0 1-1.442 1.048l-6.609-3.377a1 1 0 0 0-.91 0zm-3.17-2.872l1.35-.69a5 5 0 0 1 4.55 0l1.35.69-.32-2.002a4 4 0 0 1 1.126-3.462l1.435-1.432-2.003-.314a4 4 0 0 1-2.945-2.14L47 27.831l-.918 1.807a4 4 0 0 1-2.945 2.14l-2.003.315 1.435 1.432a4 4 0 0 1 1.125 3.462l-.32 2.002z" opacity=".1"/></svg>