<svg xmlns="http://www.w3.org/2000/svg" width="20" height="27"><g fill="none" fill-rule="evenodd"><path fill="#0C0E1C" d="M17 3a3 3 0 0 1 3 3v18a3 3 0 0 1-3 3H3a3 3 0 0 1-3-3V6a3 3 0 0 1 3-3h14zm-6.794 6.214a.446.446 0 0 0-.613.21l-1.637 3.375-3.571.588a.449.449 0 0 0-.252.134.493.493 0 0 0 0 .675l2.56 2.674-.57 3.74c-.015.1 0 .202.044.292.115.235.39.328.613.208l3.012-1.612c.13-.07.285-.07.415 0l3.012 1.612a.438.438 0 0 0 .279.046.475.475 0 0 0 .378-.547l-.57-3.739 2.56-2.674a.486.486 0 0 0 .128-.263.475.475 0 0 0-.38-.546l-3.57-.588-1.638-3.376a.467.467 0 0 0-.2-.209z"/><path fill="#E5AF32" stroke="#000" stroke-opacity=".07" d="M17 .5H3A2.5 2.5 0 0 0 .5 3v18A2.5 2.5 0 0 0 3 23.5h14a2.5 2.5 0 0 0 2.5-2.5V3A2.5 2.5 0 0 0 17 .5zm-4.62 8.848l3.316.546a.975.975 0 0 1 .793 1.113.986.986 0 0 1-.262.535l-2.39 2.496.533 3.496a.975.975 0 0 1-.79 1.115.938.938 0 0 1-.597-.098L10 16.954 7.016 18.55a.946.946 0 0 1-1.298-.43.997.997 0 0 1-.09-.587l.534-3.496-2.39-2.496a.993.993 0 0 1-.001-1.365.942.942 0 0 1 .532-.283l3.316-.546 1.524-3.143a.946.946 0 0 1 1.713 0l1.524 3.143z"/></g></svg>