<svg xmlns="http://www.w3.org/2000/svg" width="18" height="16"><g fill="#FFF" fill-rule="evenodd"><path fill-rule="nonzero" d="M7.607 10.198c-.42-.27-.984-.183-1.263.225l-1.406 1.901.076-11.42c0-.499-.421-.906-.937-.906S3.14.405 3.14.905l-.076 11.423-1.406-1.9c-.28-.408-.842-.5-1.263-.225a.854.854 0 0 0-.233 1.222l3.091 4.214c.331.453 1.066.524 1.496-.046l3.09-4.168c.28-.411.19-.956-.232-1.227z" opacity=".297"/><text font-family="Inter-Black, Inter" font-size="9" font-weight="700" opacity=".304" transform="translate(0 -1)"><tspan x="12" y="9">1</tspan> <tspan x="12" y="18">2</tspan></text></g></svg>