<svg xmlns="http://www.w3.org/2000/svg" width="26" height="22"><path fill="#3A3D54" d="M25.217 2.438a9.78 9.78 0 0 1-1.248.455A5.516 5.516 0 0 0 25.092.918a.416.416 0 0 0-.608-.485A9.82 9.82 0 0 1 21.58 1.58 5.566 5.566 0 0 0 17.704 0a5.545 5.545 0 0 0-5.494 6.254 14.18 14.18 0 0 1-9.733-5.163.416.416 0 0 0-.682.053 5.536 5.536 0 0 0-.75 2.785 5.53 5.53 0 0 0 1.318 3.59 4.692 4.692 0 0 1-.741-.33.416.416 0 0 0-.618.354l-.001.074a5.559 5.559 0 0 0 2.711 4.763 4.775 4.775 0 0 1-.421-.06.416.416 0 0 0-.474.535 5.537 5.537 0 0 0 4.057 3.712 9.8 9.8 0 0 1-5.238 1.495c-.392 0-.787-.023-1.173-.068a.417.417 0 0 0-.273.763 14.937 14.937 0 0 0 8.077 2.368c5.64 0 9.167-2.66 11.133-4.89 2.452-2.782 3.859-6.464 3.859-10.102 0-.152-.003-.305-.007-.458.967-.73 1.8-1.611 2.478-2.625a.416.416 0 0 0-.515-.612z"/></svg>