<svg xmlns="http://www.w3.org/2000/svg" width="22" height="22"><path fill="#93949D" stroke="#93949D" stroke-width=".5" d="M10.677 11.62a5.247 5.247 0 0 0 .379.001c1.381.03 2.56.372 3.761 1.048a.766.766 0 0 0 1.05-.303.787.787 0 0 0-.3-1.062c-.552-.312-.954-.54-1.554-.739a5.33 5.33 0 0 0 2.105-4.252c0-2.93-2.353-5.313-5.245-5.313S5.628 3.383 5.628 6.313a5.33 5.33 0 0 0 2.108 4.254 9.987 9.987 0 0 0-3.233 1.8 10.216 10.216 0 0 0-3.453 5.77 2.4 2.4 0 0 0 .477 1.99A2.317 2.317 0 0 0 3.34 21h5.23c.426 0 .772-.35.772-.781a.776.776 0 0 0-.772-.782H3.34a.78.78 0 0 1-.617-.297.824.824 0 0 1-.164-.684c.801-3.897 4.197-6.743 8.117-6.835zM7.17 6.314c0-2.068 1.66-3.75 3.702-3.75s3.703 1.682 3.703 3.75c0 2.005-1.563 3.648-3.52 3.745a9.224 9.224 0 0 0-.363 0C8.735 9.962 7.17 8.319 7.17 6.313zM17.653 17.49v-1.216h-3.405c-.862 0-1.688.71-1.688 1.582 0 .872.818 1.581 1.669 1.581.426 0 .771.35.771.782a.776.776 0 0 1-.771.781c-.83 0-1.733-.328-2.315-.924a3.157 3.157 0 0 1-.897-2.22c0-1.734 1.519-3.144 3.23-3.144h3.406v-1.143a.4.4 0 0 1 .657-.306l2.327 1.956a.4.4 0 0 1 0 .612l-2.326 1.964a.4.4 0 0 1-.658-.305z"/></svg>